<?xml version="1.0" standalone="no"?>
<!DOCTYPE svg PUBLIC "-//W3C//DTD SVG 20010904//EN"
 "http://www.w3.org/TR/2001/REC-SVG-20010904/DTD/svg10.dtd">
<svg version="1.0" xmlns="http://www.w3.org/2000/svg"
 width="260.000000pt" height="260.000000pt" viewBox="0 0 260.000000 260.000000"
 preserveAspectRatio="xMidYMid meet">
<metadata>
Created by potrace 1.11, written by Peter Selinger 2001-2013
</metadata>
<g transform="translate(0.000000,260.000000) scale(0.100000,-0.100000)"
fill="#000000" stroke="none">
<path d="M2258 2515 c-15 -9 -87 -58 -160 -110 -73 -52 -172 -115 -220 -140
-90 -47 -208 -95 -232 -95 -17 0 -36 51 -36 96 0 19 -4 34 -9 34 -13 0 -77
-74 -96 -110 l-16 -31 -28 38 c-30 41 -87 93 -102 93 -5 0 -9 -15 -9 -32 0
-60 -14 -66 -59 -25 -39 35 -114 87 -126 87 -4 0 -5 -8 -4 -17 1 -10 1 -31 0
-46 l-1 -28 -32 24 c-35 26 -171 97 -187 97 -5 0 -3 -21 5 -47 8 -25 14 -62
14 -80 0 -31 -2 -34 -22 -28 -39 12 -147 74 -305 176 -84 54 -176 110 -204
125 -48 24 -53 24 -68 9 -12 -12 -16 -34 -15 -98 2 -99 27 -208 88 -382 41
-116 44 -131 30 -140 -87 -53 -184 -146 -184 -176 0 -4 22 -9 50 -13 27 -4 51
-10 54 -15 3 -4 -24 -32 -59 -60 -54 -44 -111 -108 -137 -156 -4 -6 24 -9 78
-6 46 1 84 0 84 -3 0 -3 -18 -29 -40 -58 -108 -142 -153 -329 -124 -525 9 -64
12 -68 37 -43 45 43 103 88 133 103 l31 16 7 -95 c3 -53 11 -119 18 -147 11
-55 46 -137 57 -137 3 1 23 23 44 50 21 28 47 55 57 60 16 9 20 2 34 -64 17
-74 61 -176 76 -176 4 0 21 20 37 45 24 38 58 65 67 53 2 -1 21 -37 44 -78 23
-41 52 -88 66 -105 l24 -30 22 28 c48 61 54 57 95 -71 33 -103 42 -122 80
-159 50 -48 122 -68 209 -60 82 8 98 14 138 54 32 33 43 56 73 158 44 149 63
167 104 95 22 -39 23 -40 50 -26 19 10 39 39 64 91 21 42 37 79 37 83 0 4 9 8
20 9 13 1 29 -14 50 -49 29 -47 32 -49 49 -34 28 26 59 97 73 168 18 98 47 97
108 -6 l23 -38 19 23 c35 46 58 144 58 250 l0 99 33 0 c26 0 43 -10 85 -52 28
-28 54 -59 58 -70 16 -51 38 5 56 142 19 146 -25 296 -126 424 -25 33 -45 61
-43 62 10 10 59 9 105 -1 l54 -13 -7 26 c-10 40 -49 102 -106 165 -28 32 -49
61 -45 64 3 4 29 7 56 7 28 1 50 4 50 7 0 15 -64 99 -108 143 l-50 48 27 67
c45 107 79 219 101 328 24 120 25 162 6 208 -16 39 -35 43 -78 20z m-1327
-1056 c16 -23 27 -29 44 -25 32 8 54 -19 26 -33 -32 -17 -60 -13 -86 14 -24
23 -35 75 -16 75 5 0 19 -14 32 -31z m759 6 c0 -28 -40 -75 -64 -75 -8 0 -27
5 -41 10 -23 9 -25 13 -15 25 7 8 22 13 34 10 25 -6 39 2 55 33 16 29 31 28
31 -3z m-490 -674 c0 -5 -7 -14 -15 -21 -8 -7 -20 -31 -26 -53 -13 -49 -29
-34 -29 27 0 49 24 80 51 65 11 -5 19 -13 19 -18z m260 -42 c0 -20 -3 -44 -6
-53 -10 -26 -24 -18 -24 13 0 15 -10 41 -22 56 -21 27 -21 28 -3 41 28 20 55
-8 55 -57z m-165 19 c24 0 53 3 64 7 17 5 21 2 21 -14 0 -23 -16 -36 -25 -21
-5 8 -13 6 -25 -5 -12 -11 -20 -13 -25 -5 -5 8 -11 8 -21 -1 -12 -10 -17 -8
-28 6 -9 13 -15 15 -20 6 -10 -16 -26 -4 -26 20 0 16 4 19 21 14 11 -4 40 -7
64 -7z m-87 -359 c0 -20 11 -41 29 -59 25 -25 29 -26 40 -11 9 12 12 13 13 2
0 -10 3 -11 14 -2 9 7 17 8 20 2 4 -5 15 -5 31 2 23 11 39 39 48 82 2 15 7 9
16 -21 11 -35 11 -45 -2 -71 l-16 -30 -100 -2 c-91 -2 -101 0 -110 18 -14 25
-14 77 -1 102 14 26 17 24 18 -12z"/>
</g>
</svg>
